G04 Layer_Color=8388736*
%FSLAX44Y44*%
%MOMM*%
G71*
G01*
G75*
%ADD25R,0.9032X1.1032*%
%ADD26R,1.6532X0.8032*%
%ADD27R,1.9032X1.3032*%
%ADD28R,1.7032X1.7032*%
%ADD29C,1.7032*%
%ADD30R,1.7032X1.7032*%
%ADD31O,2.2032X1.2032*%
%ADD32O,2.2032X1.2032*%
D25*
X177500Y110000D02*
D03*
X192500D02*
D03*
X162500Y110000D02*
D03*
X147500D02*
D03*
D26*
X91750Y95500D02*
D03*
Y114500D02*
D03*
X68250Y105000D02*
D03*
D27*
X90000Y43500D02*
D03*
Y16500D02*
D03*
X65000Y43500D02*
D03*
Y16500D02*
D03*
D28*
X90000Y200000D02*
D03*
D29*
X64600D02*
D03*
X25000Y200400D02*
D03*
Y24600D02*
D03*
Y95600D02*
D03*
X147300Y16900D02*
D03*
X172700D02*
D03*
X198100D02*
D03*
X121900Y93100D02*
D03*
X147300D02*
D03*
X172700D02*
D03*
X198100D02*
D03*
X172700Y203100D02*
D03*
X147300D02*
D03*
X121900D02*
D03*
X198100Y126900D02*
D03*
X172700D02*
D03*
X147300D02*
D03*
X121900D02*
D03*
D30*
X25000Y175000D02*
D03*
Y50000D02*
D03*
Y121000D02*
D03*
X121900Y16900D02*
D03*
X198100Y203100D02*
D03*
D31*
X77000Y165700D02*
D03*
Y153000D02*
D03*
D32*
Y140300D02*
D03*
M02*
