G04 Layer_Color=32896*
%FSLAX44Y44*%
%MOMM*%
G71*
G01*
G75*
%ADD24C,0.2540*%
D24*
X75697Y76692D02*
X73158Y79232D01*
X68079D01*
X65540Y76692D01*
Y74153D01*
X68079Y71614D01*
X73158D01*
X75697Y69075D01*
Y66536D01*
X73158Y63996D01*
X68079D01*
X65540Y66536D01*
X83314Y76692D02*
Y74153D01*
X80775D01*
X85853D01*
X83314D01*
Y66536D01*
X85853Y63996D01*
X96010D02*
X101088D01*
X103628Y66536D01*
Y71614D01*
X101088Y74153D01*
X96010D01*
X93471Y71614D01*
Y66536D01*
X96010Y63996D01*
X108706Y79232D02*
Y63996D01*
X116324D01*
X118863Y66536D01*
Y69075D01*
Y71614D01*
X116324Y74153D01*
X108706D01*
X126480Y63996D02*
X131559D01*
X134098Y66536D01*
Y71614D01*
X131559Y74153D01*
X126480D01*
X123941Y71614D01*
Y66536D01*
X126480Y63996D01*
X139176D02*
X146794D01*
X149333Y66536D01*
X146794Y69075D01*
X141715D01*
X139176Y71614D01*
X141715Y74153D01*
X149333D01*
X164568D02*
X156950D01*
X154411Y71614D01*
Y66536D01*
X156950Y63996D01*
X164568D01*
X172185D02*
X177264D01*
X179803Y66536D01*
Y71614D01*
X177264Y74153D01*
X172185D01*
X169646Y71614D01*
Y66536D01*
X172185Y63996D01*
X184881Y58918D02*
Y74153D01*
X192499D01*
X195038Y71614D01*
Y66536D01*
X192499Y63996D01*
X184881D01*
X207734D02*
X202656D01*
X200117Y66536D01*
Y71614D01*
X202656Y74153D01*
X207734D01*
X210273Y71614D01*
Y69075D01*
X200117D01*
X97280Y49775D02*
Y34540D01*
X104897D01*
X107437Y37079D01*
Y47236D01*
X104897Y49775D01*
X97280D01*
X112515Y44697D02*
Y34540D01*
Y39618D01*
X115054Y42158D01*
X117593Y44697D01*
X120132D01*
X127750Y34540D02*
X132828D01*
X130289D01*
Y44697D01*
X127750D01*
X140446D02*
X145524Y34540D01*
X150603Y44697D01*
X163298Y34540D02*
X158220D01*
X155681Y37079D01*
Y42158D01*
X158220Y44697D01*
X163298D01*
X165838Y42158D01*
Y39618D01*
X155681D01*
X170916Y44697D02*
Y34540D01*
Y39618D01*
X173455Y42158D01*
X175994Y44697D01*
X178533D01*
X125540Y186153D02*
Y170918D01*
X133158D01*
X135697Y173457D01*
Y183614D01*
X133158Y186153D01*
X125540D01*
X140775Y170918D02*
X145853D01*
X143314D01*
Y181075D01*
X140775D01*
X153471Y170918D02*
X158549D01*
X156010D01*
Y186153D01*
X153471D01*
X166167Y170918D02*
X171245D01*
X168706D01*
Y186153D01*
X166167D01*
X181402Y170918D02*
X186480D01*
X189020Y173457D01*
Y178536D01*
X186480Y181075D01*
X181402D01*
X178863Y178536D01*
Y173457D01*
X181402Y170918D01*
X194098D02*
Y181075D01*
X201715D01*
X204254Y178536D01*
Y170918D01*
X125540Y161775D02*
Y146540D01*
Y154157D01*
X135697D01*
Y161775D01*
Y146540D01*
X148393D02*
X143314D01*
X140775Y149079D01*
Y154157D01*
X143314Y156697D01*
X148393D01*
X150932Y154157D01*
Y151618D01*
X140775D01*
X158549Y156697D02*
X163628D01*
X166167Y154157D01*
Y146540D01*
X158549D01*
X156010Y149079D01*
X158549Y151618D01*
X166167D01*
X171245Y146540D02*
X176324D01*
X173784D01*
Y161775D01*
X171245D01*
X194098D02*
Y146540D01*
X186480D01*
X183941Y149079D01*
Y154157D01*
X186480Y156697D01*
X194098D01*
X21000Y157998D02*
X27664D01*
X24332Y161331D02*
Y154666D01*
X101000Y198998D02*
X107664D01*
X104332Y202331D02*
Y195666D01*
X102000Y173000D02*
Y188235D01*
X94382D01*
X91843Y185696D01*
Y180618D01*
X94382Y178078D01*
X102000D01*
X86765Y188235D02*
X81687D01*
X84226D01*
Y173000D01*
X86765D01*
X81687D01*
X74069D02*
Y183157D01*
X66452D01*
X63912Y180618D01*
Y173000D01*
X54696Y170157D02*
X57235Y167617D01*
Y162539D01*
X54696Y160000D01*
X52157D01*
X49618Y162539D01*
Y167617D01*
X47078Y170157D01*
X44539D01*
X42000Y167617D01*
Y162539D01*
X44539Y160000D01*
X54696Y177774D02*
X52157D01*
Y175235D01*
Y180313D01*
Y177774D01*
X44539D01*
X42000Y180313D01*
X52157Y187931D02*
X42000D01*
X47078D01*
X49618Y190470D01*
X52157Y193009D01*
Y195548D01*
X57235Y203166D02*
X42000D01*
Y210784D01*
X44539Y213323D01*
X47078D01*
X49618D01*
X52157Y210784D01*
Y203166D01*
X41000Y12000D02*
X56235D01*
Y19618D01*
X53696Y22157D01*
X48618D01*
X46078Y19618D01*
Y12000D01*
X41000Y29774D02*
Y34853D01*
X43539Y37392D01*
X48618D01*
X51157Y34853D01*
Y29774D01*
X48618Y27235D01*
X43539D01*
X41000Y29774D01*
X53696Y45009D02*
X51157D01*
Y42470D01*
Y47548D01*
Y45009D01*
X43539D01*
X41000Y47548D01*
Y55166D02*
Y60244D01*
Y57705D01*
X56235D01*
X53696Y55166D01*
X41000Y83000D02*
X56235D01*
Y90618D01*
X53696Y93157D01*
X48618D01*
X46078Y90618D01*
Y83000D01*
X41000Y100774D02*
Y105853D01*
X43539Y108392D01*
X48618D01*
X51157Y105853D01*
Y100774D01*
X48618Y98235D01*
X43539D01*
X41000Y100774D01*
X53696Y116009D02*
X51157D01*
Y113470D01*
Y118548D01*
Y116009D01*
X43539D01*
X41000Y118548D01*
Y136323D02*
Y126166D01*
X51157Y136323D01*
X53696D01*
X56235Y133784D01*
Y128705D01*
X53696Y126166D01*
M02*
