M48
;Layer_Color=9474304
;FILE_FORMAT=4:4
METRIC,LZ
;TYPE=PLATED
T1F00S00C0.9000
%
T01
X00025Y000246
Y0005
Y000956
Y00121
X001219Y001269
Y000931
Y000169
X001473
X001727
X001981
Y000931
X001727
X001473
Y001269
X001727
X001981
Y002031
X001727
X001473
X001219
X0009Y002
X000646
X00025Y002004
Y00175
X00077Y001657
Y00153
Y001403
M30
