G04 Layer_Color=65535*
%FSLAX44Y44*%
%MOMM*%
G71*
G01*
G75*
%ADD20C,0.2000*%
%ADD21C,0.2500*%
%ADD22C,0.6000*%
%ADD23C,0.2540*%
D20*
X50200Y61708D02*
G03*
X50200Y18292I-15200J-21707D01*
G01*
X56000Y46150D02*
G03*
X56000Y58850I0J6350D01*
G01*
X101150Y216500D02*
G03*
X113850Y216500I6350J0D01*
G01*
X50200Y18292D02*
Y61708D01*
X168000Y181000D02*
X172000D01*
X168000Y174000D02*
X172000D01*
X191500Y97500D02*
X199500D01*
Y89500D02*
Y97500D01*
X191500Y67500D02*
X199500D01*
Y75500D01*
X56000Y26000D02*
X159000D01*
X56000Y79000D02*
X159000D01*
X56000Y26000D02*
Y46150D01*
Y58850D02*
Y79000D01*
X159000Y26000D02*
Y79000D01*
X192300Y6900D02*
X217700D01*
X192300D02*
Y57700D01*
X217700D01*
Y6900D02*
Y57700D01*
X192300Y166900D02*
X217700D01*
X192300D02*
Y217700D01*
X217700D01*
Y166900D02*
Y217700D01*
X192300Y158100D02*
X217700D01*
Y107300D02*
Y158100D01*
X192300Y107300D02*
X217700D01*
X192300D02*
Y158100D01*
X168000Y198500D02*
X172000D01*
X168000Y191500D02*
X172000D01*
X81000Y113500D02*
Y216500D01*
X134000Y113500D02*
Y216500D01*
X81000D02*
X101150D01*
X113850D02*
X134000D01*
X81000Y113500D02*
X134000D01*
X50000Y136000D02*
Y144000D01*
X35000Y136000D02*
Y144000D01*
X27500Y136000D02*
Y144000D01*
X12500Y136000D02*
Y144000D01*
X9800Y164400D02*
X35200D01*
X9800D02*
Y215200D01*
X35200D01*
Y164400D02*
Y215200D01*
D21*
X49960Y9970D02*
G03*
X49960Y9970I-1250J0D01*
G01*
X182000Y100500D02*
G03*
X182000Y100500I-1250J0D01*
G01*
X57650Y14400D02*
G03*
X57650Y14400I-1250J0D01*
G01*
X70650Y216100D02*
G03*
X70650Y216100I-1250J0D01*
G01*
D22*
X69000Y36000D02*
G03*
X69000Y36000I-3000J0D01*
G01*
X94000Y206500D02*
G03*
X94000Y206500I-3000J0D01*
G01*
D23*
X32657Y75039D02*
Y85196D01*
X30117Y87735D01*
X25039D01*
X22500Y85196D01*
Y75039D01*
X25039Y72500D01*
X30117D01*
X27578Y77578D02*
X32657Y72500D01*
X30117D02*
X32657Y75039D01*
X47892Y72500D02*
X37735D01*
X47892Y82657D01*
Y85196D01*
X45353Y87735D01*
X40274D01*
X37735Y85196D01*
X157500Y155000D02*
Y170235D01*
X165117D01*
X167657Y167696D01*
Y162617D01*
X165117Y160078D01*
X157500D01*
X162578D02*
X167657Y155000D01*
X182892D02*
X172735D01*
X182892Y165157D01*
Y167696D01*
X180353Y170235D01*
X175274D01*
X172735Y167696D01*
X162657Y105039D02*
Y115196D01*
X160117Y117735D01*
X155039D01*
X152500Y115196D01*
Y105039D01*
X155039Y102500D01*
X160117D01*
X157578Y107578D02*
X162657Y102500D01*
X160117D02*
X162657Y105039D01*
X167735Y102500D02*
X172813D01*
X170274D01*
Y117735D01*
X167735Y115196D01*
X97500Y60235D02*
Y47539D01*
X100039Y45000D01*
X105118D01*
X107657Y47539D01*
Y60235D01*
X122892Y45000D02*
X112735D01*
X122892Y55157D01*
Y57696D01*
X120353Y60235D01*
X115274D01*
X112735Y57696D01*
X157500Y205000D02*
Y220235D01*
X165117D01*
X167657Y217696D01*
Y212617D01*
X165117Y210078D01*
X157500D01*
X162578D02*
X167657Y205000D01*
X172735D02*
X177813D01*
X175274D01*
Y220235D01*
X172735Y217696D01*
X100000Y187735D02*
Y175039D01*
X102539Y172500D01*
X107618D01*
X110157Y175039D01*
Y187735D01*
X115235Y172500D02*
X120313D01*
X117774D01*
Y187735D01*
X115235Y185196D01*
X37304Y100157D02*
X34765Y97618D01*
Y92539D01*
X37304Y90000D01*
X47461D01*
X50000Y92539D01*
Y97618D01*
X47461Y100157D01*
X50000Y105235D02*
Y110313D01*
Y107774D01*
X34765D01*
X37304Y105235D01*
X14804Y100157D02*
X12265Y97618D01*
Y92539D01*
X14804Y90000D01*
X24961D01*
X27500Y92539D01*
Y97618D01*
X24961Y100157D01*
X27500Y115392D02*
Y105235D01*
X17343Y115392D01*
X14804D01*
X12265Y112853D01*
Y107774D01*
X14804Y105235D01*
X55000Y170000D02*
X39765D01*
Y177617D01*
X42304Y180157D01*
X47382D01*
X49922Y177617D01*
Y170000D01*
X39765Y185235D02*
Y190313D01*
Y187774D01*
X55000D01*
Y185235D01*
Y190313D01*
Y197931D02*
X44843D01*
Y205548D01*
X47382Y208088D01*
X55000D01*
M02*
