G04 Layer_Color=65535*
%FSLAX44Y44*%
%MOMM*%
G71*
G01*
G75*
%ADD21C,0.2500*%
%ADD22C,0.2000*%
%ADD23C,0.6000*%
%ADD24C,0.2540*%
D21*
X93000Y87000D02*
G03*
X93000Y87000I-1250J0D01*
G01*
X64540Y183030D02*
G03*
X64540Y183030I-1250J0D01*
G01*
X110150Y16900D02*
G03*
X110150Y16900I-1250J0D01*
G01*
X212350Y203100D02*
G03*
X212350Y203100I-1250J0D01*
G01*
D22*
X61800Y131292D02*
G03*
X61800Y174708I15200J21707D01*
G01*
X108500Y48650D02*
G03*
X108500Y61350I0J6350D01*
G01*
X211500Y171350D02*
G03*
X211500Y158650I0J-6350D01*
G01*
X183000Y113500D02*
X187000D01*
X183000Y106500D02*
X187000D01*
X153000Y106500D02*
X157000D01*
X153000Y113500D02*
X157000D01*
X51900Y187300D02*
Y212700D01*
X102700D01*
Y187300D02*
Y212700D01*
X51900Y187300D02*
X102700D01*
X73000Y90000D02*
X81000D01*
X73000D02*
Y98000D01*
Y120000D02*
X81000D01*
X73000Y112000D02*
Y120000D01*
X12300Y213100D02*
X37700D01*
Y162300D02*
Y213100D01*
X12300Y162300D02*
X37700D01*
X12300D02*
Y213100D01*
X61800Y131292D02*
Y174708D01*
X12300Y11900D02*
X37700D01*
X12300D02*
Y62700D01*
X37700D01*
Y11900D02*
Y62700D01*
X12300Y82900D02*
X37700D01*
X12300D02*
Y133700D01*
X37700D01*
Y82900D02*
Y133700D01*
X97500Y26000D02*
Y34000D01*
X82500Y26000D02*
Y34000D01*
X72500Y26000D02*
Y34000D01*
X57500Y26000D02*
Y34000D01*
X108500Y28500D02*
X211500D01*
X108500Y81500D02*
X211500D01*
X108500Y28500D02*
Y48650D01*
Y61350D02*
Y81500D01*
X211500Y28500D02*
Y81500D01*
X108500Y191500D02*
X211500D01*
X108500Y138500D02*
X211500D01*
Y171350D02*
Y191500D01*
Y138500D02*
Y158650D01*
X108500Y138500D02*
Y191500D01*
D23*
X121500Y38500D02*
G03*
X121500Y38500I-3000J0D01*
G01*
X204500Y181500D02*
G03*
X204500Y181500I-3000J0D01*
G01*
D24*
X176000Y142000D02*
Y157235D01*
X183617D01*
X186157Y154696D01*
Y149618D01*
X183617Y147078D01*
X176000D01*
X181078D02*
X186157Y142000D01*
X191235D02*
X196313D01*
X193774D01*
Y157235D01*
X191235Y154696D01*
X144000Y142000D02*
Y157235D01*
X151617D01*
X154157Y154696D01*
Y149618D01*
X151617Y147078D01*
X144000D01*
X149078D02*
X154157Y142000D01*
X169392D02*
X159235D01*
X169392Y152157D01*
Y154696D01*
X166853Y157235D01*
X161774D01*
X159235Y154696D01*
X55461Y104157D02*
X45304D01*
X42765Y101617D01*
Y96539D01*
X45304Y94000D01*
X55461D01*
X58000Y96539D01*
Y101617D01*
X52922Y99078D02*
X58000Y104157D01*
Y101617D02*
X55461Y104157D01*
X58000Y109235D02*
Y114313D01*
Y111774D01*
X42765D01*
X45304Y109235D01*
X55461Y153157D02*
X45304D01*
X42765Y150618D01*
Y145539D01*
X45304Y143000D01*
X55461D01*
X58000Y145539D01*
Y150618D01*
X52922Y148078D02*
X58000Y153157D01*
Y150618D02*
X55461Y153157D01*
X58000Y168392D02*
Y158235D01*
X47843Y168392D01*
X45304D01*
X42765Y165853D01*
Y160774D01*
X45304Y158235D01*
X84304Y63157D02*
X81765Y60617D01*
Y55539D01*
X84304Y53000D01*
X94461D01*
X97000Y55539D01*
Y60617D01*
X94461Y63157D01*
X97000Y68235D02*
Y73313D01*
Y70774D01*
X81765D01*
X84304Y68235D01*
X59304Y63157D02*
X56765Y60617D01*
Y55539D01*
X59304Y53000D01*
X69461D01*
X72000Y55539D01*
Y60617D01*
X69461Y63157D01*
X72000Y78392D02*
Y68235D01*
X61843Y78392D01*
X59304D01*
X56765Y75853D01*
Y70774D01*
X59304Y68235D01*
X150000Y65235D02*
Y52539D01*
X152539Y50000D01*
X157618D01*
X160157Y52539D01*
Y65235D01*
X175392Y50000D02*
X165235D01*
X175392Y60157D01*
Y62696D01*
X172853Y65235D01*
X167774D01*
X165235Y62696D01*
X150000Y175235D02*
Y162539D01*
X152539Y160000D01*
X157618D01*
X160157Y162539D01*
Y175235D01*
X165235Y160000D02*
X170313D01*
X167774D01*
Y175235D01*
X165235Y172696D01*
M02*
