M48
;Layer_Color=9474304
;FILE_FORMAT=4:4
METRIC,LZ
;TYPE=PLATED
T1F00S00C0.9000
%
T01
X00035Y000273
Y0004
Y000527
X000694Y000906
X000948
X001202
Y000144
X000948
X000694
X001456
X00205Y000196
Y00045
Y0012
X001456Y000906
Y001269
Y001523
Y001777
Y002031
X00205Y00205
Y001796
Y001454
X000694Y001523
Y001777
Y002031
X000225Y002025
Y001771
X000694Y001269
M30
