G04 Layer_Physical_Order=1*
G04 Layer_Color=255*
%FSLAX44Y44*%
%MOMM*%
G71*
G01*
G75*
%ADD10R,0.7000X0.9000*%
%ADD11R,1.4500X0.6000*%
%ADD12R,1.7000X1.1000*%
%ADD13C,0.4000*%
%ADD14C,0.5000*%
%ADD15C,1.0000*%
%ADD16R,1.5000X1.5000*%
%ADD17C,1.5000*%
%ADD18R,1.5000X1.5000*%
%ADD19O,2.0000X1.0000*%
%ADD20O,2.0000X1.0000*%
G36*
X215000Y5000D02*
X5000D01*
Y215000D01*
X215000D01*
Y5000D01*
D02*
G37*
%LPC*%
G36*
X208140Y213140D02*
X199370D01*
Y204370D01*
X208140D01*
Y213140D01*
D02*
G37*
G36*
X196830D02*
X188060D01*
Y204370D01*
X196830D01*
Y213140D01*
D02*
G37*
G36*
X26270Y210359D02*
Y201670D01*
X34959D01*
X34782Y203021D01*
X33770Y205463D01*
X32161Y207561D01*
X30063Y209170D01*
X27621Y210182D01*
X26270Y210359D01*
D02*
G37*
G36*
X23730D02*
X22379Y210182D01*
X19937Y209170D01*
X17839Y207561D01*
X16230Y205463D01*
X15218Y203021D01*
X15041Y201670D01*
X23730D01*
Y210359D01*
D02*
G37*
G36*
X65870Y209959D02*
Y201270D01*
X74559D01*
X74382Y202621D01*
X73370Y205063D01*
X71761Y207161D01*
X69663Y208770D01*
X67221Y209782D01*
X65870Y209959D01*
D02*
G37*
G36*
X63330D02*
X61979Y209782D01*
X59537Y208770D01*
X57439Y207161D01*
X55830Y205063D01*
X54818Y202621D01*
X54641Y201270D01*
X63330D01*
Y209959D01*
D02*
G37*
G36*
X208140Y201830D02*
X199370D01*
Y193060D01*
X208140D01*
Y201830D01*
D02*
G37*
G36*
X196830D02*
X188060D01*
Y193060D01*
X196830D01*
Y201830D01*
D02*
G37*
G36*
X147300Y213227D02*
X144679Y212882D01*
X142237Y211870D01*
X140139Y210261D01*
X138530Y208163D01*
X137518Y205721D01*
X137173Y203100D01*
X137518Y200479D01*
X138530Y198037D01*
X140139Y195939D01*
X142237Y194330D01*
X144679Y193318D01*
X147300Y192973D01*
X149921Y193318D01*
X152363Y194330D01*
X154461Y195939D01*
X156070Y198037D01*
X157082Y200479D01*
X157427Y203100D01*
X157082Y205721D01*
X156070Y208163D01*
X154461Y210261D01*
X152363Y211870D01*
X149921Y212882D01*
X147300Y213227D01*
D02*
G37*
G36*
X172700D02*
X170079Y212882D01*
X167637Y211870D01*
X165539Y210261D01*
X163930Y208163D01*
X162918Y205721D01*
X162573Y203100D01*
X162918Y200479D01*
X163930Y198037D01*
X165539Y195939D01*
X167637Y194330D01*
X168071Y194150D01*
Y154217D01*
X150355Y136502D01*
X149921Y136682D01*
X147300Y137027D01*
X144679Y136682D01*
X142237Y135670D01*
X140139Y134061D01*
X138530Y131963D01*
X137518Y129521D01*
X137173Y126900D01*
X137518Y124279D01*
X138530Y121837D01*
X140139Y119739D01*
X142002Y118310D01*
X141827Y117346D01*
X141667Y117040D01*
X141460D01*
Y110833D01*
X130775Y100148D01*
X130321Y100203D01*
X129505Y100588D01*
Y105630D01*
X129246Y107598D01*
X128801Y108673D01*
X128486Y109433D01*
X127278Y111008D01*
X122689Y115596D01*
X123144Y116937D01*
X124521Y117118D01*
X126963Y118130D01*
X129061Y119739D01*
X130670Y121837D01*
X131682Y124279D01*
X132027Y126900D01*
X131682Y129521D01*
X130670Y131963D01*
X129061Y134061D01*
X126963Y135670D01*
X124521Y136682D01*
X121900Y137027D01*
X119279Y136682D01*
X116837Y135670D01*
X115735Y134825D01*
X114465Y135451D01*
Y145874D01*
X114206Y147843D01*
X113446Y149677D01*
X112238Y151252D01*
X92772Y170717D01*
X95378Y173322D01*
X96586Y174897D01*
X96901Y175657D01*
X97346Y176732D01*
X97605Y178700D01*
Y189960D01*
X100040D01*
Y192395D01*
X118800D01*
X120768Y192654D01*
X121626Y193009D01*
X121900Y192973D01*
X124521Y193318D01*
X126963Y194330D01*
X129061Y195939D01*
X130670Y198037D01*
X131682Y200479D01*
X132027Y203100D01*
X131682Y205721D01*
X130670Y208163D01*
X129061Y210261D01*
X126963Y211870D01*
X124521Y212882D01*
X121900Y213227D01*
X119279Y212882D01*
X116837Y211870D01*
X114739Y210261D01*
X113130Y208163D01*
X112899Y207605D01*
X100040D01*
Y210040D01*
X79960D01*
Y189960D01*
X82395D01*
Y181850D01*
X73850Y173305D01*
X72000D01*
X70032Y173046D01*
X68197Y172286D01*
X66622Y171078D01*
X65414Y169503D01*
X64654Y167668D01*
X64395Y165700D01*
X64654Y163732D01*
X65414Y161898D01*
X66622Y160322D01*
X67062Y159985D01*
Y158715D01*
X66622Y158378D01*
X65414Y156803D01*
X64654Y154968D01*
X64395Y153000D01*
X64654Y151032D01*
X65414Y149198D01*
X66622Y147622D01*
X67062Y147285D01*
Y146015D01*
X66622Y145678D01*
X66048Y144929D01*
X61617D01*
X35040Y171506D01*
Y185040D01*
X14960D01*
Y164960D01*
X28494D01*
X56427Y137027D01*
X56427Y137027D01*
X57929Y136023D01*
X59700Y135671D01*
X59700Y135671D01*
X66048D01*
X66622Y134922D01*
X68197Y133714D01*
X70032Y132954D01*
X72000Y132695D01*
X72371D01*
Y115667D01*
X67244Y110540D01*
X60708D01*
X60708Y110542D01*
X59594Y112209D01*
X47169Y124634D01*
X45502Y125748D01*
X43535Y126139D01*
X35040D01*
Y131040D01*
X14960D01*
Y110960D01*
X14991D01*
X15517Y109690D01*
X9687Y103860D01*
X8683Y102359D01*
X8331Y100587D01*
X8331Y100587D01*
Y84040D01*
X8331Y84040D01*
X8683Y82269D01*
X9687Y80767D01*
X20371Y70083D01*
Y60040D01*
X14960D01*
Y39960D01*
X35040D01*
Y60040D01*
X29629D01*
Y72000D01*
X29629Y72000D01*
X29277Y73771D01*
X28273Y75273D01*
X28273Y75273D01*
X17685Y85861D01*
X17806Y87135D01*
X18878Y87642D01*
X19937Y86830D01*
X22379Y85818D01*
X25000Y85473D01*
X27621Y85818D01*
X28055Y85998D01*
X60371Y53683D01*
Y51540D01*
X53960D01*
Y35460D01*
X73754D01*
X74240Y34287D01*
X71123Y31169D01*
X32615D01*
X32161Y31761D01*
X30063Y33370D01*
X27621Y34382D01*
X25000Y34727D01*
X22379Y34382D01*
X19937Y33370D01*
X17839Y31761D01*
X16230Y29663D01*
X15218Y27221D01*
X14873Y24600D01*
X15218Y21979D01*
X16230Y19537D01*
X17839Y17439D01*
X19937Y15830D01*
X22379Y14818D01*
X25000Y14473D01*
X27621Y14818D01*
X30063Y15830D01*
X32161Y17439D01*
X33770Y19537D01*
X34753Y21911D01*
X53960D01*
Y17770D01*
X65000D01*
X76040D01*
Y23084D01*
X76313Y23267D01*
X77763Y24717D01*
X78960Y24118D01*
X78960Y23445D01*
Y17770D01*
X88730D01*
Y24540D01*
X80146D01*
X79382Y24540D01*
X78783Y25737D01*
X88506Y35460D01*
X101040D01*
Y51540D01*
X78960D01*
Y39006D01*
X77213Y37260D01*
X76040Y37746D01*
Y51540D01*
X69629D01*
Y55600D01*
X69629Y55600D01*
X69277Y57371D01*
X68273Y58873D01*
X68273Y58873D01*
X34602Y92545D01*
X34782Y92979D01*
X34959Y94326D01*
X36300Y94781D01*
X53294Y77787D01*
X53294Y77787D01*
X54796Y76783D01*
X56567Y76431D01*
X56567Y76431D01*
X126887D01*
X126887Y76431D01*
X128659Y76783D01*
X130160Y77787D01*
X137213Y84840D01*
X137213Y84840D01*
X138217Y86341D01*
X138249Y86503D01*
X139486Y86791D01*
X140139Y85939D01*
X142237Y84330D01*
X144679Y83318D01*
X147300Y82973D01*
X149921Y83318D01*
X152363Y84330D01*
X154461Y85939D01*
X156070Y88037D01*
X156250Y88471D01*
X163750D01*
X163930Y88037D01*
X165539Y85939D01*
X167637Y84330D01*
X170079Y83318D01*
X172700Y82973D01*
X175321Y83318D01*
X177763Y84330D01*
X179861Y85939D01*
X181470Y88037D01*
X182482Y90479D01*
X182827Y93100D01*
X182482Y95721D01*
X181470Y98163D01*
X179861Y100261D01*
X177998Y101690D01*
X178173Y102654D01*
X178333Y102960D01*
X183540D01*
Y117040D01*
X182639D01*
Y122100D01*
X182295Y123828D01*
X182482Y124279D01*
X182827Y126900D01*
X182482Y129521D01*
X181470Y131963D01*
X179861Y134061D01*
X177763Y135670D01*
X175321Y136682D01*
X172700Y137027D01*
X170079Y136682D01*
X167637Y135670D01*
X165539Y134061D01*
X163930Y131963D01*
X162918Y129521D01*
X162573Y126900D01*
X162918Y124279D01*
X163930Y121837D01*
X165539Y119739D01*
X167402Y118310D01*
X167227Y117346D01*
X167068Y117040D01*
X156460D01*
Y102960D01*
X167067D01*
X167227Y102654D01*
X167402Y101690D01*
X165539Y100261D01*
X163930Y98163D01*
X163750Y97729D01*
X156250D01*
X156070Y98163D01*
X154461Y100261D01*
X152598Y101690D01*
X152773Y102654D01*
X152933Y102960D01*
X153540D01*
Y117040D01*
X152933D01*
X152773Y117346D01*
X152598Y118310D01*
X154461Y119739D01*
X156070Y121837D01*
X157082Y124279D01*
X157427Y126900D01*
X157082Y129521D01*
X156902Y129955D01*
X175973Y149027D01*
X175973Y149027D01*
X176977Y150529D01*
X177329Y152300D01*
X177329Y152300D01*
Y194150D01*
X177763Y194330D01*
X179861Y195939D01*
X181470Y198037D01*
X182482Y200479D01*
X182827Y203100D01*
X182482Y205721D01*
X181470Y208163D01*
X179861Y210261D01*
X177763Y211870D01*
X175321Y212882D01*
X172700Y213227D01*
D02*
G37*
G36*
X34959Y199130D02*
X26270D01*
Y190441D01*
X27621Y190618D01*
X30063Y191630D01*
X32161Y193239D01*
X33770Y195337D01*
X34782Y197779D01*
X34959Y199130D01*
D02*
G37*
G36*
X23730D02*
X15041D01*
X15218Y197779D01*
X16230Y195337D01*
X17839Y193239D01*
X19937Y191630D01*
X22379Y190618D01*
X23730Y190441D01*
Y199130D01*
D02*
G37*
G36*
X74559Y198730D02*
X65870D01*
Y190041D01*
X67221Y190218D01*
X69663Y191230D01*
X71761Y192839D01*
X73370Y194937D01*
X74382Y197379D01*
X74559Y198730D01*
D02*
G37*
G36*
X63330D02*
X54641D01*
X54818Y197379D01*
X55830Y194937D01*
X57439Y192839D01*
X59537Y191230D01*
X61979Y190218D01*
X63330Y190041D01*
Y198730D01*
D02*
G37*
G36*
X198100Y137027D02*
X195479Y136682D01*
X193037Y135670D01*
X190939Y134061D01*
X189330Y131963D01*
X188318Y129521D01*
X187973Y126900D01*
X188318Y124279D01*
X189330Y121837D01*
X190939Y119739D01*
X191567Y119257D01*
X191691Y117656D01*
X191108Y117040D01*
X186460D01*
Y102960D01*
X192467D01*
X192627Y102654D01*
X192802Y101690D01*
X190939Y100261D01*
X189330Y98163D01*
X188318Y95721D01*
X187973Y93100D01*
X188318Y90479D01*
X189330Y88037D01*
X190939Y85939D01*
X193037Y84330D01*
X195479Y83318D01*
X198100Y82973D01*
X200721Y83318D01*
X203163Y84330D01*
X205261Y85939D01*
X206870Y88037D01*
X207882Y90479D01*
X208227Y93100D01*
X207882Y95721D01*
X206870Y98163D01*
X205261Y100261D01*
X203163Y101870D01*
X200721Y102882D01*
X198540Y103169D01*
Y108773D01*
X201734Y111966D01*
X202848Y113633D01*
X203239Y115600D01*
Y118188D01*
X205261Y119739D01*
X206870Y121837D01*
X207882Y124279D01*
X208227Y126900D01*
X207882Y129521D01*
X206870Y131963D01*
X205261Y134061D01*
X203163Y135670D01*
X200721Y136682D01*
X198100Y137027D01*
D02*
G37*
G36*
X186000Y33629D02*
X186000Y33629D01*
X159400D01*
X157629Y33277D01*
X156127Y32273D01*
X156127Y32273D01*
X150355Y26502D01*
X149921Y26682D01*
X147300Y27027D01*
X144679Y26682D01*
X142237Y25670D01*
X140139Y24061D01*
X138530Y21963D01*
X137518Y19521D01*
X137173Y16900D01*
X137518Y14279D01*
X138530Y11837D01*
X140139Y9739D01*
X142237Y8130D01*
X144679Y7118D01*
X147300Y6773D01*
X149921Y7118D01*
X152363Y8130D01*
X154461Y9739D01*
X156070Y11837D01*
X157082Y14279D01*
X157427Y16900D01*
X157082Y19521D01*
X156902Y19955D01*
X161317Y24371D01*
X164177D01*
X164803Y23101D01*
X163930Y21963D01*
X162918Y19521D01*
X162573Y16900D01*
X162918Y14279D01*
X163930Y11837D01*
X165539Y9739D01*
X167637Y8130D01*
X170079Y7118D01*
X172700Y6773D01*
X175321Y7118D01*
X177763Y8130D01*
X179861Y9739D01*
X181470Y11837D01*
X182482Y14279D01*
X182827Y16900D01*
X182482Y19521D01*
X181470Y21963D01*
X180597Y23101D01*
X181223Y24371D01*
X184083D01*
X188498Y19955D01*
X188318Y19521D01*
X187973Y16900D01*
X188318Y14279D01*
X189330Y11837D01*
X190939Y9739D01*
X193037Y8130D01*
X195479Y7118D01*
X198100Y6773D01*
X200721Y7118D01*
X203163Y8130D01*
X205261Y9739D01*
X206870Y11837D01*
X207882Y14279D01*
X208227Y16900D01*
X207882Y19521D01*
X206870Y21963D01*
X205261Y24061D01*
X203163Y25670D01*
X200721Y26682D01*
X198100Y27027D01*
X195479Y26682D01*
X195045Y26502D01*
X189273Y32273D01*
X187771Y33277D01*
X186000Y33629D01*
D02*
G37*
G36*
X131940Y26940D02*
X123170D01*
Y18170D01*
X131940D01*
Y26940D01*
D02*
G37*
G36*
X120630D02*
X111860D01*
Y18170D01*
X120630D01*
Y26940D01*
D02*
G37*
G36*
X91270Y24540D02*
Y17770D01*
X101040D01*
Y24540D01*
X91270D01*
D02*
G37*
G36*
X101040Y15230D02*
X91270D01*
Y8460D01*
X101040D01*
Y15230D01*
D02*
G37*
G36*
X88730D02*
X78960D01*
Y8460D01*
X88730D01*
Y15230D01*
D02*
G37*
G36*
X76040D02*
X66270D01*
Y8460D01*
X76040D01*
Y15230D01*
D02*
G37*
G36*
X63730D02*
X53960D01*
Y8460D01*
X63730D01*
Y15230D01*
D02*
G37*
G36*
X131940Y15630D02*
X123170D01*
Y6860D01*
X131940D01*
Y15630D01*
D02*
G37*
G36*
X120630D02*
X111860D01*
Y6860D01*
X120630D01*
Y15630D01*
D02*
G37*
%LPD*%
G36*
X114295Y102480D02*
Y101010D01*
X114122Y100878D01*
X113939Y100639D01*
X101540D01*
Y101040D01*
X93477D01*
X89884Y104634D01*
X88216Y105747D01*
X86250Y106139D01*
X81628D01*
X79661Y105747D01*
X79160Y105413D01*
X78040Y106011D01*
Y108244D01*
X80273Y110477D01*
X80690Y111101D01*
X81960Y110715D01*
Y108960D01*
X101540D01*
Y113576D01*
X102713Y114062D01*
X114295Y102480D01*
D02*
G37*
G36*
X50821Y106447D02*
Y99912D01*
X51212Y97946D01*
X52326Y96279D01*
X55279Y93326D01*
X56946Y92212D01*
X58912Y91821D01*
X77588D01*
X79554Y92212D01*
X80690Y92971D01*
X81960Y92320D01*
Y89960D01*
X101540D01*
Y90361D01*
X112167D01*
X113130Y88037D01*
X113957Y86959D01*
X113331Y85689D01*
X58485D01*
X34483Y109690D01*
X35010Y110960D01*
X35040D01*
Y115861D01*
X41407D01*
X50821Y106447D01*
D02*
G37*
D10*
X177500Y110000D02*
D03*
X192500D02*
D03*
X162500Y110000D02*
D03*
X147500D02*
D03*
D11*
X91750Y95500D02*
D03*
Y114500D02*
D03*
X68250Y105000D02*
D03*
D12*
X90000Y43500D02*
D03*
Y16500D02*
D03*
X65000Y43500D02*
D03*
Y16500D02*
D03*
D13*
X147300Y16900D02*
X159400Y29000D01*
X186000D01*
X198100Y16900D01*
X147300Y126900D02*
X172700Y152300D01*
Y203100D01*
X25000Y175000D02*
X59700Y140300D01*
X77000D01*
X68250Y105000D02*
X77000Y113750D01*
Y140300D01*
X91540Y114710D02*
Y144252D01*
X85952Y149840D02*
X91540Y144252D01*
X80160Y149840D02*
X85952D01*
X77000Y153000D02*
X80160Y149840D01*
X25000Y50000D02*
Y72000D01*
X12960Y84040D02*
X25000Y72000D01*
X12960Y84040D02*
Y100587D01*
X20013Y107640D01*
X29987D01*
X56567Y81060D01*
X126887D01*
X133940Y88113D01*
Y96767D01*
X147173Y110000D01*
X147500D01*
X25000Y26540D02*
X73040D01*
X90000Y43500D01*
X25000Y24600D02*
Y26540D01*
X147300Y93100D02*
X172700D01*
X25000Y95600D02*
X65000Y55600D01*
Y43500D02*
Y55600D01*
D14*
X162500Y110000D02*
X177500D01*
X172700Y126900D02*
X177500Y122100D01*
Y110000D02*
Y122100D01*
X192500Y110000D02*
X198100Y115600D01*
Y126900D01*
X25000Y121000D02*
X43535D01*
X55960Y108575D01*
Y99912D02*
Y108575D01*
Y99912D02*
X58912Y96960D01*
X77588D01*
X81628Y101000D01*
X86250D01*
X91750Y95500D01*
X119500D01*
D15*
X90000Y200000D02*
X118800D01*
X119500Y95500D02*
X121900Y93100D01*
Y105630D01*
X106860Y120670D02*
X121900Y105630D01*
X106860Y120670D02*
Y145874D01*
X87194Y165540D02*
X106860Y145874D01*
X77160Y165540D02*
X87194D01*
X77000Y165700D02*
X77160Y165540D01*
X77000Y165700D02*
X90000Y178700D01*
Y200000D01*
D16*
D03*
D17*
X64600D02*
D03*
X25000Y200400D02*
D03*
Y24600D02*
D03*
Y95600D02*
D03*
X147300Y16900D02*
D03*
X172700D02*
D03*
X198100D02*
D03*
X121900Y93100D02*
D03*
X147300D02*
D03*
X172700D02*
D03*
X198100D02*
D03*
X172700Y203100D02*
D03*
X147300D02*
D03*
X121900D02*
D03*
X198100Y126900D02*
D03*
X172700D02*
D03*
X147300D02*
D03*
X121900D02*
D03*
D18*
X25000Y175000D02*
D03*
Y50000D02*
D03*
Y121000D02*
D03*
X121900Y16900D02*
D03*
X198100Y203100D02*
D03*
D19*
X77000Y165700D02*
D03*
Y153000D02*
D03*
D20*
Y140300D02*
D03*
M02*
