G04 Layer_Color=32896*
%FSLAX44Y44*%
%MOMM*%
G71*
G01*
G75*
%ADD24C,0.2540*%
D24*
X104526Y208321D02*
Y199324D01*
X109025D01*
X110525Y200824D01*
Y202323D01*
X109025Y203823D01*
X104526D01*
X109025D01*
X110525Y205322D01*
Y206822D01*
X109025Y208321D01*
X104526D01*
X113524Y205322D02*
Y200824D01*
X115023Y199324D01*
X119522D01*
Y197824D01*
X118022Y196325D01*
X116523D01*
X119522Y199324D02*
Y205322D01*
X122521D02*
X124020D01*
Y203823D01*
X122521D01*
Y205322D01*
Y200824D02*
X124020D01*
Y199324D01*
X122521D01*
Y200824D01*
X91031Y188430D02*
Y179433D01*
X95529D01*
X97029Y180932D01*
Y186930D01*
X95529Y188430D01*
X91031D01*
X100028Y179433D02*
X103027D01*
X101527D01*
Y185431D01*
X100028D01*
X107525Y179433D02*
X110525D01*
X109025D01*
Y188430D01*
X107525D01*
X115023Y179433D02*
X118022D01*
X116523D01*
Y188430D01*
X115023D01*
X124020Y179433D02*
X127019D01*
X128519Y180932D01*
Y183931D01*
X127019Y185431D01*
X124020D01*
X122521Y183931D01*
Y180932D01*
X124020Y179433D01*
X131518D02*
Y185431D01*
X136016D01*
X137516Y183931D01*
Y179433D01*
X94030Y171537D02*
Y162540D01*
Y167039D01*
X100028D01*
Y171537D01*
Y162540D01*
X107525D02*
X104526D01*
X103027Y164039D01*
Y167039D01*
X104526Y168538D01*
X107525D01*
X109025Y167039D01*
Y165539D01*
X103027D01*
X113524Y168538D02*
X116523D01*
X118022Y167039D01*
Y162540D01*
X113524D01*
X112024Y164039D01*
X113524Y165539D01*
X118022D01*
X121021Y162540D02*
X124020D01*
X122521D01*
Y171537D01*
X121021D01*
X134517D02*
Y162540D01*
X130018D01*
X128519Y164039D01*
Y167039D01*
X130018Y168538D01*
X134517D01*
X7540Y75322D02*
Y69324D01*
X10539Y66325D01*
X13538Y69324D01*
Y75322D01*
X18037Y72323D02*
X21036D01*
X22535Y70823D01*
Y66325D01*
X18037D01*
X16537Y67825D01*
X18037Y69324D01*
X22535D01*
X25534Y72323D02*
Y66325D01*
Y69324D01*
X27034Y70823D01*
X28533Y72323D01*
X30033D01*
X34531Y66325D02*
X37530D01*
X36031D01*
Y72323D01*
X34531D01*
X43528D02*
X46527D01*
X48027Y70823D01*
Y66325D01*
X43528D01*
X42029Y67825D01*
X43528Y69324D01*
X48027D01*
X51026Y75322D02*
Y66325D01*
X55525D01*
X57024Y67825D01*
Y69324D01*
Y70823D01*
X55525Y72323D01*
X51026D01*
X60023Y66325D02*
X63022D01*
X61522D01*
Y75322D01*
X60023D01*
X72019Y66325D02*
X69020D01*
X67521Y67825D01*
Y70823D01*
X69020Y72323D01*
X72019D01*
X73519Y70823D01*
Y69324D01*
X67521D01*
X7540Y49433D02*
Y58430D01*
X12039D01*
X13538Y56930D01*
Y53931D01*
X12039Y52432D01*
X7540D01*
X16537Y58430D02*
Y49433D01*
X19536Y52432D01*
X22535Y49433D01*
Y58430D01*
X25534Y49433D02*
Y58430D01*
X28533Y55430D01*
X31532Y58430D01*
Y49433D01*
X43528Y58430D02*
Y49433D01*
X48027D01*
X49526Y50932D01*
Y56930D01*
X48027Y58430D01*
X43528D01*
X52525Y55430D02*
Y49433D01*
Y52432D01*
X54025Y53931D01*
X55525Y55430D01*
X57024D01*
X61522Y49433D02*
X64521D01*
X63022D01*
Y55430D01*
X61522D01*
X69020D02*
X72019Y49433D01*
X75018Y55430D01*
X82516Y49433D02*
X79517D01*
X78017Y50932D01*
Y53931D01*
X79517Y55430D01*
X82516D01*
X84015Y53931D01*
Y52432D01*
X78017D01*
X87014Y55430D02*
Y49433D01*
Y52432D01*
X88514Y53931D01*
X90013Y55430D01*
X91513D01*
X7540Y40038D02*
X9039Y41537D01*
X12039D01*
X13538Y40038D01*
Y38538D01*
X12039Y37039D01*
X10539D01*
X12039D01*
X13538Y35539D01*
Y34039D01*
X12039Y32540D01*
X9039D01*
X7540Y34039D01*
X16537Y37039D02*
X22535D01*
X25534Y32540D02*
X28533D01*
X27034D01*
Y41537D01*
X25534Y40038D01*
X33032D02*
X34531Y41537D01*
X37530D01*
X39030Y40038D01*
Y38538D01*
X37530Y37039D01*
X39030Y35539D01*
Y34039D01*
X37530Y32540D01*
X34531D01*
X33032Y34039D01*
Y35539D01*
X34531Y37039D01*
X33032Y38538D01*
Y40038D01*
X34531Y37039D02*
X37530D01*
X42029Y41537D02*
Y35539D01*
X45028Y32540D01*
X48027Y35539D01*
Y41537D01*
X170000Y172617D02*
X180157D01*
X170000Y192617D02*
X180157D01*
X175078Y197696D02*
Y187539D01*
X20000Y137618D02*
X30157D01*
X25078Y142696D02*
Y132539D01*
X10998Y167498D02*
X9499Y168997D01*
X6500D01*
X5000Y167498D01*
Y161500D01*
X6500Y160000D01*
X9499D01*
X10998Y161500D01*
Y164499D01*
X7999D01*
X13997Y160000D02*
Y168997D01*
X19995Y160000D01*
Y168997D01*
X22994D02*
Y160000D01*
X27493D01*
X28992Y161500D01*
Y167498D01*
X27493Y168997D01*
X22994D01*
M02*
