G04 Layer_Color=65535*
%FSLAX44Y44*%
%MOMM*%
G71*
G01*
G75*
%ADD21C,0.2000*%
%ADD22C,0.2500*%
%ADD23C,0.6000*%
%ADD24C,0.2540*%
%ADD25R,0.8000X1.9000*%
D21*
X108650Y211500D02*
G03*
X121350Y211500I6350J0D01*
G01*
X90500Y25500D02*
Y44500D01*
X129500D01*
X90500Y25500D02*
X129500D01*
Y80500D02*
Y99500D01*
X90500Y80500D02*
X129500D01*
X90500Y99500D02*
X129500D01*
X159600Y9200D02*
X210400D01*
Y123500D01*
X185000D02*
X210400D01*
X185000Y110800D02*
Y123500D01*
X159600Y110800D02*
X185000D01*
X159600Y9200D02*
Y110800D01*
X88500Y108500D02*
Y211500D01*
X141500Y108500D02*
Y211500D01*
X88500D02*
X108650D01*
X121350D02*
X141500D01*
X88500Y108500D02*
X141500D01*
X187300Y156900D02*
X212700D01*
X187300D02*
Y207700D01*
X212700D01*
Y156900D02*
Y207700D01*
X32300Y178100D02*
X57700D01*
Y127300D02*
Y178100D01*
X32300Y127300D02*
X57700D01*
X32300D02*
Y178100D01*
D22*
X78150Y211100D02*
G03*
X78150Y211100I-1250J0D01*
G01*
D23*
X101500Y201500D02*
G03*
X101500Y201500I-3000J0D01*
G01*
D24*
X24985Y78698D02*
Y67701D01*
X30483D01*
X32315Y69534D01*
Y71367D01*
X30483Y73199D01*
X24985D01*
X30483D01*
X32315Y75032D01*
Y76865D01*
X30483Y78698D01*
X24985D01*
X35981Y75032D02*
Y69534D01*
X37814Y67701D01*
X43312D01*
Y65868D01*
X41479Y64036D01*
X39646D01*
X43312Y67701D02*
Y75032D01*
X46977D02*
X48810D01*
Y73199D01*
X46977D01*
Y75032D01*
Y69534D02*
X48810D01*
Y67701D01*
X46977D01*
Y69534D01*
X8490Y55740D02*
Y44744D01*
X13988D01*
X15821Y46577D01*
Y53907D01*
X13988Y55740D01*
X8490D01*
X19486Y44744D02*
X23152D01*
X21319D01*
Y52075D01*
X19486D01*
X28650Y44744D02*
X32315D01*
X30483D01*
Y55740D01*
X28650D01*
X37814Y44744D02*
X41479D01*
X39646D01*
Y55740D01*
X37814D01*
X48810Y44744D02*
X52476D01*
X54308Y46577D01*
Y50242D01*
X52476Y52075D01*
X48810D01*
X46977Y50242D01*
Y46577D01*
X48810Y44744D01*
X57974D02*
Y52075D01*
X63472D01*
X65305Y50242D01*
Y44744D01*
X12155Y36449D02*
Y25452D01*
Y30950D01*
X19486D01*
Y36449D01*
Y25452D01*
X28650D02*
X24984D01*
X23152Y27285D01*
Y30950D01*
X24984Y32783D01*
X28650D01*
X30483Y30950D01*
Y29118D01*
X23152D01*
X35981Y32783D02*
X39646D01*
X41479Y30950D01*
Y25452D01*
X35981D01*
X34148Y27285D01*
X35981Y29118D01*
X41479D01*
X45145Y25452D02*
X48810D01*
X46977D01*
Y36449D01*
X45145D01*
X61639D02*
Y25452D01*
X56141D01*
X54308Y27285D01*
Y30950D01*
X56141Y32783D01*
X61639D01*
X100000Y20235D02*
Y5000D01*
X107618D01*
X110157Y7539D01*
Y17696D01*
X107618Y20235D01*
X100000D01*
X115235Y5000D02*
X120313D01*
X117774D01*
Y20235D01*
X115235Y17696D01*
X100000Y75235D02*
Y60000D01*
X107618D01*
X110157Y62539D01*
Y72696D01*
X107618Y75235D01*
X100000D01*
X125392Y60000D02*
X115235D01*
X125392Y70157D01*
Y72696D01*
X122853Y75235D01*
X117774D01*
X115235Y72696D01*
X210000Y15000D02*
Y20078D01*
Y17539D01*
X194765D01*
X197304Y15000D01*
Y27696D02*
X194765Y30235D01*
Y35313D01*
X197304Y37853D01*
X207461D01*
X210000Y35313D01*
Y30235D01*
X207461Y27696D01*
X197304D01*
Y42931D02*
X194765Y45470D01*
Y50549D01*
X197304Y53088D01*
X207461D01*
X210000Y50549D01*
Y45470D01*
X207461Y42931D01*
X197304D01*
X194765Y58166D02*
X210000D01*
X204922D01*
X194765Y68323D01*
X202383Y60705D01*
X210000Y68323D01*
Y73401D02*
X194765D01*
Y81019D01*
X197304Y83558D01*
X202383D01*
X204922Y81019D01*
Y73401D01*
X210000Y91175D02*
Y96254D01*
X207461Y98793D01*
X202383D01*
X199843Y96254D01*
Y91175D01*
X202383Y88636D01*
X207461D01*
X210000Y91175D01*
X197304Y106411D02*
X199843D01*
Y103871D01*
Y108950D01*
Y106411D01*
X207461D01*
X210000Y108950D01*
X120000Y205235D02*
Y192539D01*
X122539Y190000D01*
X127618D01*
X130157Y192539D01*
Y205235D01*
X135235Y190000D02*
X140313D01*
X137774D01*
Y205235D01*
X135235Y202696D01*
X180000Y160000D02*
X164765D01*
Y167617D01*
X167304Y170157D01*
X172383D01*
X174922Y167617D01*
Y160000D01*
X164765Y175235D02*
X180000D01*
X174922Y180313D01*
X180000Y185392D01*
X164765D01*
X180000Y190470D02*
X164765D01*
X169843Y195548D01*
X164765Y200627D01*
X180000D01*
X25000Y125000D02*
X9765D01*
Y132618D01*
X12304Y135157D01*
X17383D01*
X19922Y132618D01*
Y125000D01*
X25000Y142774D02*
Y147853D01*
X22461Y150392D01*
X17383D01*
X14843Y147853D01*
Y142774D01*
X17383Y140235D01*
X22461D01*
X25000Y142774D01*
X14843Y155470D02*
X22461D01*
X25000Y158009D01*
X22461Y160548D01*
X25000Y163088D01*
X22461Y165627D01*
X14843D01*
X25000Y178323D02*
Y173244D01*
X22461Y170705D01*
X17383D01*
X14843Y173244D01*
Y178323D01*
X17383Y180862D01*
X19922D01*
Y170705D01*
X14843Y185940D02*
X25000D01*
X19922D01*
X17383Y188479D01*
X14843Y191019D01*
Y193558D01*
X50157Y117696D02*
X47618Y120235D01*
X42539D01*
X40000Y117696D01*
Y107539D01*
X42539Y105000D01*
X47618D01*
X50157Y107539D01*
X55235Y117696D02*
X57774Y120235D01*
X62853D01*
X65392Y117696D01*
Y115157D01*
X62853Y112618D01*
X60313D01*
X62853D01*
X65392Y110078D01*
Y107539D01*
X62853Y105000D01*
X57774D01*
X55235Y107539D01*
X172304Y140157D02*
X169765Y137618D01*
Y132539D01*
X172304Y130000D01*
X182461D01*
X185000Y132539D01*
Y137618D01*
X182461Y140157D01*
X185000Y152853D02*
X169765D01*
X177383Y145235D01*
Y155392D01*
D25*
X126500Y35000D02*
D03*
X93500Y90000D02*
D03*
M02*
