G04 Layer_Physical_Order=1*
G04 Layer_Color=255*
%FSLAX44Y44*%
%MOMM*%
G71*
G01*
G75*
%ADD10R,1.1000X1.4000*%
%ADD11R,1.4000X1.1000*%
%ADD12C,0.8000*%
%ADD13C,1.0000*%
%ADD14C,0.5000*%
%ADD15C,1.5000*%
%ADD16R,1.5000X1.5000*%
%ADD17C,1.5000*%
%ADD18R,1.2000X1.2000*%
%ADD19C,1.2000*%
%ADD20R,1.5000X1.5000*%
G36*
X215000Y5000D02*
X5000D01*
Y215000D01*
X215000D01*
Y5000D01*
D02*
G37*
%LPC*%
G36*
X86940Y208140D02*
X78170D01*
Y199370D01*
X86940D01*
Y208140D01*
D02*
G37*
G36*
X75630D02*
X66860D01*
Y199370D01*
X75630D01*
Y208140D01*
D02*
G37*
G36*
X86940Y196830D02*
X78170D01*
Y188060D01*
X86940D01*
Y196830D01*
D02*
G37*
G36*
X75630D02*
X66860D01*
Y188060D01*
X75630D01*
Y196830D01*
D02*
G37*
G36*
X153100Y208227D02*
X150479Y207882D01*
X148037Y206870D01*
X145939Y205261D01*
X145939Y205261D01*
X88269Y147591D01*
X86929Y148046D01*
X86682Y149921D01*
X85670Y152363D01*
X84061Y154461D01*
X81963Y156070D01*
X79521Y157082D01*
X76900Y157427D01*
X74279Y157082D01*
X71837Y156070D01*
X69739Y154461D01*
X68130Y152363D01*
X67118Y149921D01*
X66872Y148046D01*
X66729Y147907D01*
X65519Y147500D01*
X63863Y148770D01*
X61421Y149782D01*
X58800Y150127D01*
X58800Y150127D01*
X45000D01*
X44342Y150040D01*
X34960D01*
Y140658D01*
X34873Y140000D01*
X34960Y139342D01*
Y129960D01*
X44342D01*
X45000Y129873D01*
X54605D01*
X69739Y114740D01*
X69739Y114739D01*
X71837Y113130D01*
X74279Y112118D01*
X76900Y111773D01*
X79521Y112118D01*
X81963Y113130D01*
X84061Y114739D01*
X141731Y172409D01*
X143071Y171954D01*
X143318Y170079D01*
X144330Y167637D01*
X145939Y165539D01*
X149039Y162439D01*
X151137Y160830D01*
X153579Y159818D01*
X156200Y159473D01*
X156200Y159473D01*
X200000D01*
X202621Y159818D01*
X205063Y160830D01*
X207161Y162439D01*
X208770Y164537D01*
X209782Y166979D01*
X210127Y169600D01*
X209782Y172221D01*
X208770Y174663D01*
X207161Y176761D01*
X205063Y178370D01*
X202621Y179382D01*
X200000Y179727D01*
X160395D01*
X160261Y179861D01*
X158163Y181470D01*
X155721Y182482D01*
X153846Y182729D01*
X153391Y184069D01*
X154428Y185107D01*
X156200Y184873D01*
X156200Y184873D01*
X200000D01*
X200658Y184960D01*
X210040D01*
Y194342D01*
X210127Y195000D01*
X210040Y195658D01*
Y205040D01*
X200658D01*
X200000Y205127D01*
X160395D01*
X160261Y205261D01*
X158163Y206870D01*
X155721Y207882D01*
X153100Y208227D01*
D02*
G37*
G36*
X46270Y175359D02*
Y166670D01*
X54959D01*
X54782Y168021D01*
X53770Y170463D01*
X52161Y172561D01*
X50063Y174170D01*
X47621Y175182D01*
X46270Y175359D01*
D02*
G37*
G36*
X43730D02*
X42379Y175182D01*
X39937Y174170D01*
X37839Y172561D01*
X36230Y170463D01*
X35218Y168021D01*
X35041Y166670D01*
X43730D01*
Y175359D01*
D02*
G37*
G36*
X76900Y182827D02*
X74279Y182482D01*
X71837Y181470D01*
X69739Y179861D01*
X68130Y177763D01*
X67118Y175321D01*
X66773Y172700D01*
X67118Y170079D01*
X68130Y167637D01*
X69739Y165539D01*
X71837Y163930D01*
X74279Y162918D01*
X76900Y162573D01*
X79521Y162918D01*
X81963Y163930D01*
X84061Y165539D01*
X85670Y167637D01*
X86682Y170079D01*
X87027Y172700D01*
X86682Y175321D01*
X85670Y177763D01*
X84061Y179861D01*
X81963Y181470D01*
X79521Y182482D01*
X76900Y182827D01*
D02*
G37*
G36*
X54959Y164130D02*
X46270D01*
Y155441D01*
X47621Y155618D01*
X50063Y156630D01*
X52161Y158239D01*
X53770Y160337D01*
X54782Y162779D01*
X54959Y164130D01*
D02*
G37*
G36*
X43730D02*
X35041D01*
X35218Y162779D01*
X36230Y160337D01*
X37839Y158239D01*
X39937Y156630D01*
X42379Y155618D01*
X43730Y155441D01*
Y164130D01*
D02*
G37*
G36*
X209540Y155540D02*
X201270D01*
Y148770D01*
X209540D01*
Y155540D01*
D02*
G37*
G36*
X198730D02*
X190460D01*
Y148770D01*
X198730D01*
Y155540D01*
D02*
G37*
G36*
X153100Y157427D02*
X150479Y157082D01*
X148037Y156070D01*
X145939Y154461D01*
X144330Y152363D01*
X143318Y149921D01*
X142973Y147300D01*
X143066Y146595D01*
X93068Y96596D01*
X84540D01*
Y100040D01*
X64460D01*
Y99540D01*
X43770D01*
Y90000D01*
Y80460D01*
X64460D01*
Y79960D01*
X66895D01*
Y41581D01*
X65730Y40063D01*
X64718Y37621D01*
X64373Y35000D01*
X64718Y32379D01*
X65730Y29937D01*
X67339Y27839D01*
X69437Y26230D01*
X71879Y25218D01*
X74500Y24873D01*
X77121Y25218D01*
X79563Y26230D01*
X81661Y27839D01*
X83270Y29937D01*
X84282Y32379D01*
X84627Y35000D01*
X84282Y37621D01*
X83270Y40063D01*
X82105Y41581D01*
Y79960D01*
X84540D01*
Y83404D01*
X95800D01*
X97507Y83628D01*
X99098Y84287D01*
X100464Y85336D01*
X144398Y129269D01*
X144506Y129278D01*
X144915Y128800D01*
X145170Y128058D01*
X144330Y126963D01*
X143318Y124521D01*
X142973Y121900D01*
X143318Y119279D01*
X144330Y116837D01*
X145939Y114739D01*
X148037Y113130D01*
X150479Y112118D01*
X153100Y111773D01*
X155721Y112118D01*
X158163Y113130D01*
X160261Y114739D01*
X161870Y116837D01*
X162882Y119279D01*
X163131Y121176D01*
X166850Y124895D01*
X190460D01*
Y124460D01*
X209540D01*
Y139460D01*
Y146230D01*
X200000D01*
X190460D01*
Y140105D01*
X163700D01*
X161732Y139846D01*
X161592Y139788D01*
X160791Y140831D01*
X161870Y142237D01*
X162882Y144679D01*
X163227Y147300D01*
X162882Y149921D01*
X161870Y152363D01*
X160261Y154461D01*
X158163Y156070D01*
X155721Y157082D01*
X153100Y157427D01*
D02*
G37*
G36*
X41230Y99540D02*
X34460D01*
Y91270D01*
X41230D01*
Y99540D01*
D02*
G37*
G36*
Y88730D02*
X34460D01*
Y80460D01*
X41230D01*
Y88730D01*
D02*
G37*
G36*
X185000Y94014D02*
X182771Y93720D01*
X180693Y92860D01*
X178909Y91491D01*
X177540Y89707D01*
X176680Y87629D01*
X176386Y85400D01*
X176680Y83171D01*
X177540Y81093D01*
X178909Y79309D01*
X180693Y77940D01*
X182771Y77080D01*
X185000Y76786D01*
X187229Y77080D01*
X189307Y77940D01*
X191091Y79309D01*
X192460Y81093D01*
X193320Y83171D01*
X193614Y85400D01*
X193320Y87629D01*
X192460Y89707D01*
X191091Y91491D01*
X189307Y92860D01*
X187229Y93720D01*
X185000Y94014D01*
D02*
G37*
G36*
X145500Y100127D02*
X142879Y99782D01*
X140437Y98770D01*
X138339Y97161D01*
X136730Y95063D01*
X135718Y92621D01*
X135373Y90000D01*
X135718Y87379D01*
X136730Y84937D01*
X138339Y82839D01*
X140437Y81230D01*
X142879Y80218D01*
X145500Y79873D01*
X146205Y79966D01*
X170836Y55336D01*
X172202Y54287D01*
X173793Y53628D01*
X175500Y53404D01*
X179568D01*
X180693Y52540D01*
X182771Y51680D01*
X185000Y51386D01*
X187229Y51680D01*
X189307Y52540D01*
X191091Y53909D01*
X192460Y55693D01*
X193320Y57771D01*
X193614Y60000D01*
X193320Y62229D01*
X192460Y64307D01*
X191091Y66091D01*
X189307Y67460D01*
X187229Y68320D01*
X185000Y68614D01*
X182771Y68320D01*
X180693Y67460D01*
X179568Y66596D01*
X178232D01*
X155534Y89295D01*
X155627Y90000D01*
X155282Y92621D01*
X154270Y95063D01*
X152661Y97161D01*
X150563Y98770D01*
X148121Y99782D01*
X145500Y100127D01*
D02*
G37*
G36*
X155540Y45040D02*
X135460D01*
Y24960D01*
X155540D01*
Y28004D01*
X176460D01*
Y26060D01*
X193540D01*
Y43140D01*
X176460D01*
Y41196D01*
X155540D01*
Y45040D01*
D02*
G37*
%LPD*%
D10*
X42500Y90000D02*
D03*
X57500D02*
D03*
D11*
X200000Y147500D02*
D03*
Y132500D02*
D03*
D12*
X145900Y34600D02*
X185000D01*
X145500Y90000D02*
X175500Y60000D01*
X185000D01*
X74500Y90000D02*
X95800D01*
X74500Y170300D02*
X76900Y172700D01*
X95800Y90000D02*
X153100Y147300D01*
D13*
X74500Y35000D02*
Y90000D01*
X57500D02*
X74500D01*
X163700Y132500D02*
X200000D01*
X153100Y121900D02*
X163700Y132500D01*
D14*
X76900Y147300D02*
X80733Y143467D01*
D15*
X76900Y121900D02*
X153100Y198100D01*
X58800Y140000D02*
X76900Y121900D01*
X45000Y140000D02*
X58800D01*
X156200Y169600D02*
X200000D01*
X153100Y172700D02*
X156200Y169600D01*
Y195000D02*
X200000D01*
X153100Y198100D02*
X156200Y195000D01*
D16*
X145500Y35000D02*
D03*
X74500Y90000D02*
D03*
X76900Y198100D02*
D03*
D17*
X74500Y35000D02*
D03*
X145500Y90000D02*
D03*
X76900Y172700D02*
D03*
Y147300D02*
D03*
Y121900D02*
D03*
X153100Y198100D02*
D03*
Y172700D02*
D03*
Y147300D02*
D03*
Y121900D02*
D03*
X200000Y169600D02*
D03*
X45000Y165400D02*
D03*
D18*
X185000Y34600D02*
D03*
D19*
Y60000D02*
D03*
Y85400D02*
D03*
D20*
X200000Y195000D02*
D03*
X45000Y140000D02*
D03*
M02*
