G04 Layer_Physical_Order=2*
G04 Layer_Color=16711680*
%FSLAX44Y44*%
%MOMM*%
G71*
G01*
G75*
%ADD13C,0.5000*%
%ADD15O,2.0000X1.0000*%
%ADD16O,2.0000X1.0000*%
%ADD17R,1.5000X1.5000*%
%ADD18C,1.5000*%
%ADD19R,1.5000X1.5000*%
G36*
X220000Y5000D02*
X151928D01*
X151497Y6270D01*
X152761Y7239D01*
X154370Y9337D01*
X155382Y11779D01*
X155727Y14400D01*
X155382Y17021D01*
X154370Y19463D01*
X152761Y21561D01*
X150663Y23170D01*
X148221Y24182D01*
X145600Y24527D01*
X142979Y24182D01*
X140537Y23170D01*
X138737Y21789D01*
X138484Y21743D01*
X137671Y21838D01*
X137185Y22013D01*
X136374Y23228D01*
X129028Y30574D01*
X127361Y31688D01*
X125394Y32079D01*
X115006D01*
X113039Y31688D01*
X111372Y30574D01*
X104026Y23228D01*
X103214Y22013D01*
X102729Y21838D01*
X101916Y21743D01*
X101663Y21789D01*
X99863Y23170D01*
X97421Y24182D01*
X94800Y24527D01*
X92273Y24194D01*
X61999Y54468D01*
Y82023D01*
X63269Y82649D01*
X64337Y81830D01*
X66779Y80818D01*
X69400Y80473D01*
X72021Y80818D01*
X74463Y81830D01*
X76561Y83439D01*
X78170Y85537D01*
X79182Y87979D01*
X79527Y90600D01*
X79182Y93221D01*
X78170Y95663D01*
X76561Y97761D01*
X74539Y99312D01*
Y118188D01*
X76561Y119739D01*
X78170Y121837D01*
X79182Y124279D01*
X79527Y126900D01*
X79182Y129521D01*
X78170Y131963D01*
X76561Y134061D01*
X74463Y135670D01*
X74197Y135780D01*
X73828Y136996D01*
X74148Y137473D01*
X74539Y139440D01*
Y143588D01*
X76561Y145139D01*
X78170Y147237D01*
X79182Y149679D01*
X79527Y152300D01*
X79182Y154921D01*
X78170Y157363D01*
X76561Y159461D01*
X74463Y161070D01*
X72021Y162082D01*
X69400Y162427D01*
X66779Y162082D01*
X64337Y161070D01*
X62239Y159461D01*
X60630Y157363D01*
X59618Y154921D01*
X59273Y152300D01*
X59618Y149679D01*
X60630Y147237D01*
X62011Y145437D01*
X62057Y145184D01*
X61962Y144371D01*
X61787Y143885D01*
X60572Y143074D01*
X53226Y135728D01*
X52112Y134061D01*
X51721Y132094D01*
Y52340D01*
X52112Y50374D01*
X53226Y48706D01*
X76319Y25613D01*
X75833Y24440D01*
X70670D01*
Y14400D01*
X69400D01*
Y13130D01*
X59360D01*
Y5000D01*
X5000D01*
Y220000D01*
X220000D01*
Y5000D01*
D02*
G37*
%LPC*%
G36*
X79440Y213140D02*
X70670D01*
Y204370D01*
X79440D01*
Y213140D01*
D02*
G37*
G36*
X68130D02*
X59360D01*
Y204370D01*
X68130D01*
Y213140D01*
D02*
G37*
G36*
X215040Y215040D02*
X194960D01*
Y194960D01*
X215040D01*
Y215040D01*
D02*
G37*
G36*
X79440Y201830D02*
X70670D01*
Y193060D01*
X79440D01*
Y201830D01*
D02*
G37*
G36*
X68130D02*
X59360D01*
Y193060D01*
X68130D01*
Y201830D01*
D02*
G37*
G36*
X145600Y213227D02*
X142979Y212882D01*
X140537Y211870D01*
X138439Y210261D01*
X136830Y208163D01*
X135818Y205721D01*
X135473Y203100D01*
X135818Y200479D01*
X136830Y198037D01*
X138439Y195939D01*
X140537Y194330D01*
X142979Y193318D01*
X145600Y192973D01*
X148221Y193318D01*
X150663Y194330D01*
X152761Y195939D01*
X154370Y198037D01*
X155382Y200479D01*
X155727Y203100D01*
X155382Y205721D01*
X154370Y208163D01*
X152761Y210261D01*
X150663Y211870D01*
X148221Y212882D01*
X145600Y213227D01*
D02*
G37*
G36*
X32540Y212540D02*
X12460D01*
Y192460D01*
X32540D01*
Y212540D01*
D02*
G37*
G36*
X23770Y187059D02*
Y178370D01*
X32459D01*
X32282Y179721D01*
X31270Y182163D01*
X29661Y184261D01*
X27563Y185870D01*
X25121Y186882D01*
X23770Y187059D01*
D02*
G37*
G36*
X21230D02*
X19879Y186882D01*
X17437Y185870D01*
X15339Y184261D01*
X13730Y182163D01*
X12718Y179721D01*
X12541Y178370D01*
X21230D01*
Y187059D01*
D02*
G37*
G36*
X205000Y189727D02*
X202379Y189382D01*
X199937Y188370D01*
X197839Y186761D01*
X196230Y184663D01*
X195218Y182221D01*
X194873Y179600D01*
X195218Y176979D01*
X196230Y174537D01*
X197839Y172439D01*
X199937Y170830D01*
X202379Y169818D01*
X205000Y169473D01*
X207621Y169818D01*
X210063Y170830D01*
X212161Y172439D01*
X213770Y174537D01*
X214782Y176979D01*
X215127Y179600D01*
X214782Y182221D01*
X213770Y184663D01*
X212161Y186761D01*
X210063Y188370D01*
X207621Y189382D01*
X205000Y189727D01*
D02*
G37*
G36*
X145600Y187827D02*
X142979Y187482D01*
X140537Y186470D01*
X138439Y184861D01*
X136830Y182763D01*
X135818Y180321D01*
X135473Y177700D01*
X135818Y175079D01*
X136830Y172637D01*
X138439Y170539D01*
X140537Y168930D01*
X142979Y167918D01*
X145600Y167573D01*
X148221Y167918D01*
X150663Y168930D01*
X152761Y170539D01*
X154370Y172637D01*
X155382Y175079D01*
X155727Y177700D01*
X155382Y180321D01*
X154370Y182763D01*
X152761Y184861D01*
X150663Y186470D01*
X148221Y187482D01*
X145600Y187827D01*
D02*
G37*
G36*
X32459Y175830D02*
X23770D01*
Y167141D01*
X25121Y167318D01*
X27563Y168330D01*
X29661Y169939D01*
X31270Y172037D01*
X32282Y174479D01*
X32459Y175830D01*
D02*
G37*
G36*
X21230D02*
X12541D01*
X12718Y174479D01*
X13730Y172037D01*
X15339Y169939D01*
X17437Y168330D01*
X19879Y167318D01*
X21230Y167141D01*
Y175830D01*
D02*
G37*
G36*
X69400Y187827D02*
X66779Y187482D01*
X64337Y186470D01*
X62239Y184861D01*
X60630Y182763D01*
X59618Y180321D01*
X59273Y177700D01*
X59618Y175079D01*
X60630Y172637D01*
X62239Y170539D01*
X64337Y168930D01*
X66779Y167918D01*
X69400Y167573D01*
X72021Y167918D01*
X74463Y168930D01*
X76561Y170539D01*
X78112Y172561D01*
X118071D01*
X135806Y154827D01*
X135473Y152300D01*
X135818Y149679D01*
X136830Y147237D01*
X138439Y145139D01*
X140537Y143530D01*
X142979Y142518D01*
X145600Y142173D01*
X148221Y142518D01*
X150663Y143530D01*
X152761Y145139D01*
X154370Y147237D01*
X155382Y149679D01*
X155727Y152300D01*
X155382Y154921D01*
X154370Y157363D01*
X152761Y159461D01*
X150663Y161070D01*
X148221Y162082D01*
X145600Y162427D01*
X143073Y162094D01*
X123834Y181334D01*
X122167Y182448D01*
X120200Y182839D01*
X78112D01*
X76561Y184861D01*
X74463Y186470D01*
X72021Y187482D01*
X69400Y187827D01*
D02*
G37*
G36*
X205000Y155527D02*
X202379Y155182D01*
X199937Y154170D01*
X197839Y152561D01*
X196288Y150539D01*
X182666D01*
X180699Y150148D01*
X179032Y149034D01*
X156957Y126959D01*
X155654Y127452D01*
X155382Y129521D01*
X154370Y131963D01*
X152761Y134061D01*
X150663Y135670D01*
X148221Y136682D01*
X145600Y137027D01*
X142979Y136682D01*
X140537Y135670D01*
X138439Y134061D01*
X136830Y131963D01*
X135818Y129521D01*
X135473Y126900D01*
X135818Y124279D01*
X136830Y121837D01*
X138439Y119739D01*
X140537Y118130D01*
X142979Y117118D01*
X145048Y116846D01*
X145541Y115543D01*
X129426Y99428D01*
X128955Y98722D01*
X127954Y97722D01*
X127361Y97761D01*
X125263Y99370D01*
X122821Y100382D01*
X120200Y100727D01*
X117579Y100382D01*
X115137Y99370D01*
X113039Y97761D01*
X111430Y95663D01*
X110418Y93221D01*
X110073Y90600D01*
X110418Y87979D01*
X111430Y85537D01*
X113039Y83439D01*
X115137Y81830D01*
X117579Y80818D01*
X120200Y80473D01*
X122821Y80818D01*
X125263Y81830D01*
X127361Y83439D01*
X128970Y85537D01*
X129014Y85643D01*
X130066Y85852D01*
X131734Y86966D01*
X134329Y89562D01*
X135670Y89107D01*
X135818Y87979D01*
X136830Y85537D01*
X138439Y83439D01*
X140537Y81830D01*
X142979Y80818D01*
X145600Y80473D01*
X148221Y80818D01*
X150663Y81830D01*
X152761Y83439D01*
X154370Y85537D01*
X155382Y87979D01*
X155727Y90600D01*
X155382Y93221D01*
X154370Y95663D01*
X152761Y97761D01*
X150663Y99370D01*
X148221Y100382D01*
X146886Y100557D01*
X146431Y101898D01*
X184794Y140261D01*
X196288D01*
X197839Y138239D01*
X199937Y136630D01*
X202379Y135618D01*
X205000Y135273D01*
X207621Y135618D01*
X210063Y136630D01*
X212161Y138239D01*
X213770Y140337D01*
X214782Y142779D01*
X215127Y145400D01*
X214782Y148021D01*
X213770Y150463D01*
X212161Y152561D01*
X210063Y154170D01*
X207621Y155182D01*
X205000Y155527D01*
D02*
G37*
G36*
X215040Y130040D02*
X194960D01*
Y109960D01*
X215040D01*
Y130040D01*
D02*
G37*
G36*
X94800Y100727D02*
X92179Y100382D01*
X89737Y99370D01*
X87639Y97761D01*
X86030Y95663D01*
X85018Y93221D01*
X84673Y90600D01*
X85018Y87979D01*
X86030Y85537D01*
X87639Y83439D01*
X89737Y81830D01*
X92179Y80818D01*
X94800Y80473D01*
X97421Y80818D01*
X99863Y81830D01*
X101961Y83439D01*
X103570Y85537D01*
X104582Y87979D01*
X104927Y90600D01*
X104582Y93221D01*
X103570Y95663D01*
X101961Y97761D01*
X99863Y99370D01*
X97421Y100382D01*
X94800Y100727D01*
D02*
G37*
G36*
X215040Y55040D02*
X194960D01*
Y34960D01*
X215040D01*
Y55040D01*
D02*
G37*
G36*
X206270Y29559D02*
Y20870D01*
X214959D01*
X214782Y22221D01*
X213770Y24663D01*
X212161Y26761D01*
X210063Y28370D01*
X207621Y29382D01*
X206270Y29559D01*
D02*
G37*
G36*
X203730D02*
X202379Y29382D01*
X199937Y28370D01*
X197839Y26761D01*
X196230Y24663D01*
X195218Y22221D01*
X195041Y20870D01*
X203730D01*
Y29559D01*
D02*
G37*
G36*
X40000Y60305D02*
X30000D01*
X28032Y60046D01*
X26198Y59286D01*
X24622Y58078D01*
X23414Y56502D01*
X22654Y54668D01*
X22395Y52700D01*
X22654Y50732D01*
X23414Y48898D01*
X24622Y47322D01*
X25062Y46985D01*
Y45715D01*
X24622Y45378D01*
X23414Y43802D01*
X22654Y41968D01*
X22395Y40000D01*
X22654Y38032D01*
X23414Y36198D01*
X24622Y34622D01*
X25062Y34285D01*
Y33015D01*
X24622Y32678D01*
X23414Y31102D01*
X22654Y29268D01*
X22395Y27300D01*
X22654Y25332D01*
X23414Y23498D01*
X24622Y21922D01*
X26198Y20714D01*
X28032Y19954D01*
X30000Y19695D01*
X40000D01*
X41968Y19954D01*
X43803Y20714D01*
X45378Y21922D01*
X46586Y23498D01*
X47346Y25332D01*
X47605Y27300D01*
X47346Y29268D01*
X46586Y31102D01*
X45378Y32678D01*
X44938Y33015D01*
Y34285D01*
X45378Y34622D01*
X46586Y36198D01*
X47346Y38032D01*
X47605Y40000D01*
X47346Y41968D01*
X46586Y43802D01*
X45378Y45378D01*
X44938Y45715D01*
Y46985D01*
X45378Y47322D01*
X46586Y48898D01*
X47346Y50732D01*
X47605Y52700D01*
X47346Y54668D01*
X46586Y56502D01*
X45378Y58078D01*
X43802Y59286D01*
X41968Y60046D01*
X40000Y60305D01*
D02*
G37*
G36*
X68130Y24440D02*
X59360D01*
Y15670D01*
X68130D01*
Y24440D01*
D02*
G37*
G36*
X214959Y18330D02*
X206270D01*
Y9641D01*
X207621Y9818D01*
X210063Y10830D01*
X212161Y12439D01*
X213770Y14537D01*
X214782Y16979D01*
X214959Y18330D01*
D02*
G37*
G36*
X203730D02*
X195041D01*
X195218Y16979D01*
X196230Y14537D01*
X197839Y12439D01*
X199937Y10830D01*
X202379Y9818D01*
X203730Y9641D01*
Y18330D01*
D02*
G37*
%LPD*%
D13*
X94800Y14400D02*
X107660D01*
Y19594D01*
X115006Y26940D01*
X125394D01*
X132740Y19594D01*
Y14400D02*
Y19594D01*
Y14400D02*
X145600D01*
X56860Y52340D02*
X94800Y14400D01*
X120200Y90600D02*
X128100D01*
X133060Y95560D01*
Y95794D01*
X182666Y145400D01*
X205000D01*
X69400Y177700D02*
X120200D01*
X145600Y152300D01*
X56860Y52340D02*
Y132094D01*
X64206Y139440D01*
X69400D01*
Y152300D01*
Y90600D02*
Y126900D01*
D15*
X35000Y27300D02*
D03*
Y40000D02*
D03*
D16*
Y52700D02*
D03*
D17*
X69400Y14400D02*
D03*
X205000Y45000D02*
D03*
Y205000D02*
D03*
Y120000D02*
D03*
X22500Y202500D02*
D03*
D18*
X94800Y14400D02*
D03*
X120200D02*
D03*
X145600D02*
D03*
X69400Y90600D02*
D03*
X94800D02*
D03*
X120200D02*
D03*
X145600D02*
D03*
X205000Y19600D02*
D03*
Y179600D02*
D03*
Y145400D02*
D03*
X69400Y177700D02*
D03*
Y152300D02*
D03*
Y126900D02*
D03*
X145600Y203100D02*
D03*
Y177700D02*
D03*
Y152300D02*
D03*
Y126900D02*
D03*
X22500Y177100D02*
D03*
D19*
X69400Y203100D02*
D03*
M02*
