G04 Layer_Color=32896*
%FSLAX44Y44*%
%MOMM*%
G71*
G01*
G75*
%ADD23C,0.2540*%
D23*
X10386Y72697D02*
X7847Y70157D01*
Y65079D01*
X10386Y62540D01*
X12925D01*
X15464Y65079D01*
Y70157D01*
X18004Y72697D01*
X20543D01*
X23082Y70157D01*
Y65079D01*
X20543Y62540D01*
X10386Y80314D02*
X12925D01*
Y77775D01*
Y82853D01*
Y80314D01*
X20543D01*
X23082Y82853D01*
X12925Y90471D02*
X23082D01*
X18004D01*
X15464Y93010D01*
X12925Y95549D01*
Y98089D01*
X23082Y108245D02*
Y113324D01*
X20543Y115863D01*
X15464D01*
X12925Y113324D01*
Y108245D01*
X15464Y105706D01*
X20543D01*
X23082Y108245D01*
X7847Y120941D02*
X23082D01*
Y128559D01*
X20543Y131098D01*
X18004D01*
X15464D01*
X12925Y128559D01*
Y120941D01*
X23082Y143794D02*
Y138715D01*
X20543Y136176D01*
X15464D01*
X12925Y138715D01*
Y143794D01*
X15464Y146333D01*
X18004D01*
Y136176D01*
X34764Y72697D02*
X32225Y70157D01*
Y65079D01*
X34764Y62540D01*
X44921D01*
X47460Y65079D01*
Y70157D01*
X44921Y72697D01*
X47460Y80314D02*
Y85393D01*
X44921Y87932D01*
X39843D01*
X37303Y85393D01*
Y80314D01*
X39843Y77775D01*
X44921D01*
X47460Y80314D01*
Y93010D02*
X37303D01*
Y100628D01*
X39843Y103167D01*
X47460D01*
X34764Y110784D02*
X37303D01*
Y108245D01*
Y113324D01*
Y110784D01*
X44921D01*
X47460Y113324D01*
X37303Y120941D02*
X47460D01*
X42382D01*
X39843Y123480D01*
X37303Y126019D01*
Y128559D01*
X47460Y138715D02*
Y143794D01*
X44921Y146333D01*
X39843D01*
X37303Y143794D01*
Y138715D01*
X39843Y136176D01*
X44921D01*
X47460Y138715D01*
Y151411D02*
Y156490D01*
Y153950D01*
X32225D01*
Y151411D01*
X47460Y164107D02*
Y169186D01*
Y166646D01*
X32225D01*
Y164107D01*
X47460Y184421D02*
Y179342D01*
X44921Y176803D01*
X39843D01*
X37303Y179342D01*
Y184421D01*
X39843Y186960D01*
X42382D01*
Y176803D01*
X37303Y192038D02*
X47460D01*
X42382D01*
X39843Y194577D01*
X37303Y197116D01*
Y199656D01*
X70040Y72153D02*
Y56918D01*
X77657D01*
X80197Y59457D01*
Y69614D01*
X77657Y72153D01*
X70040D01*
X85275Y56918D02*
X90353D01*
X87814D01*
Y67075D01*
X85275D01*
X97971Y56918D02*
X103049D01*
X100510D01*
Y72153D01*
X97971D01*
X110667Y56918D02*
X115745D01*
X113206D01*
Y72153D01*
X110667D01*
X125902Y56918D02*
X130980D01*
X133519Y59457D01*
Y64536D01*
X130980Y67075D01*
X125902D01*
X123363Y64536D01*
Y59457D01*
X125902Y56918D01*
X138598D02*
Y67075D01*
X146215D01*
X148755Y64536D01*
Y56918D01*
X70040Y47775D02*
Y32540D01*
Y40157D01*
X80197D01*
Y47775D01*
Y32540D01*
X92893D02*
X87814D01*
X85275Y35079D01*
Y40157D01*
X87814Y42697D01*
X92893D01*
X95432Y40157D01*
Y37618D01*
X85275D01*
X103049Y42697D02*
X108128D01*
X110667Y40157D01*
Y32540D01*
X103049D01*
X100510Y35079D01*
X103049Y37618D01*
X110667D01*
X115745Y32540D02*
X120824D01*
X118284D01*
Y47775D01*
X115745D01*
X138598D02*
Y32540D01*
X130980D01*
X128441Y35079D01*
Y40157D01*
X130980Y42697D01*
X138598D01*
X185196Y20157D02*
X187735Y17617D01*
Y12539D01*
X185196Y10000D01*
X182657D01*
X180117Y12539D01*
Y17617D01*
X177578Y20157D01*
X175039D01*
X172500Y17617D01*
Y12539D01*
X175039Y10000D01*
X185196Y27774D02*
X182657D01*
Y25235D01*
Y30313D01*
Y27774D01*
X175039D01*
X172500Y30313D01*
X182657Y37931D02*
X172500D01*
X177578D01*
X180117Y40470D01*
X182657Y43009D01*
Y45549D01*
X187735Y53166D02*
X172500D01*
Y60784D01*
X175039Y63323D01*
X177578D01*
X180117D01*
X182657Y60784D01*
Y53166D01*
X187735Y76019D02*
Y70940D01*
X185196Y68401D01*
X175039D01*
X172500Y70940D01*
Y76019D01*
X175039Y78558D01*
X185196D01*
X187735Y76019D01*
X182657Y83636D02*
X175039D01*
X172500Y86175D01*
Y93793D01*
X182657D01*
X185196Y101410D02*
X182657D01*
Y98871D01*
Y103950D01*
Y101410D01*
X175039D01*
X172500Y103950D01*
X187500Y185000D02*
X182422D01*
X184961D01*
Y200235D01*
X187500Y197696D01*
X174804Y185000D02*
Y200235D01*
X169726Y195157D01*
X164647Y200235D01*
Y185000D01*
X159569D02*
Y200235D01*
X151952D01*
X149412Y197696D01*
Y192617D01*
X151952Y190078D01*
X159569D01*
X141795Y185000D02*
X136716D01*
X134177Y187539D01*
Y192617D01*
X136716Y195157D01*
X141795D01*
X144334Y192617D01*
Y187539D01*
X141795Y185000D01*
X126560Y197696D02*
Y195157D01*
X129099D01*
X124021D01*
X126560D01*
Y187539D01*
X124021Y185000D01*
X116403D02*
X111325D01*
X113864D01*
Y200235D01*
X116403Y197696D01*
X187500Y127500D02*
X182422D01*
X184961D01*
Y142735D01*
X187500Y140196D01*
X174804Y127500D02*
Y142735D01*
X169726Y137657D01*
X164647Y142735D01*
Y127500D01*
X159569D02*
Y142735D01*
X151952D01*
X149412Y140196D01*
Y135118D01*
X151952Y132578D01*
X159569D01*
X141795Y127500D02*
X136716D01*
X134177Y130039D01*
Y135118D01*
X136716Y137657D01*
X141795D01*
X144334Y135118D01*
Y130039D01*
X141795Y127500D01*
X126560Y140196D02*
Y137657D01*
X129099D01*
X124021D01*
X126560D01*
Y130039D01*
X124021Y127500D01*
X106246D02*
X116403D01*
X106246Y137657D01*
Y140196D01*
X108785Y142735D01*
X113864D01*
X116403Y140196D01*
M02*
